<?xml version="1.0" standalone="no"?>
<!DOCTYPE svg PUBLIC "-//W3C//DTD SVG 20010904//EN"
 "http://www.w3.org/TR/2001/REC-SVG-20010904/DTD/svg10.dtd">
<svg version="1.0" xmlns="http://www.w3.org/2000/svg"
 width="323.000000pt" height="323.000000pt" viewBox="0 0 323.000000 323.000000"
 preserveAspectRatio="xMidYMid meet">
<metadata>
Created by potrace 1.14, written by Peter Selinger 2001-2017
</metadata>
<g transform="translate(0.000000,323.000000) scale(0.100000,-0.100000)"
fill="#000000" stroke="none">
<path d="M1530 3149 c-8 -5 -44 -9 -79 -7 -44 1 -66 -3 -69 -11 -3 -9 -7 -9
-18 0 -8 6 -14 7 -14 2 0 -5 -9 -9 -20 -9 -11 0 -20 4 -20 9 0 5 -7 4 -15 -3
-8 -7 -26 -10 -40 -8 -14 3 -25 1 -25 -4 0 -5 -4 -6 -10 -3 -5 3 -16 3 -22 -2
-18 -11 -52 -10 -60 2 -5 6 -8 5 -8 -3 0 -7 -4 -10 -10 -7 -5 3 -10 3 -10 -2
0 -4 -19 -8 -43 -7 -23 0 -46 -2 -52 -5 -9 -5 -35 -10 -65 -12 -8 -1 -21 -7
-29 -13 -12 -9 -13 -8 -6 4 7 12 6 13 -7 3 -8 -7 -18 -10 -21 -6 -4 3 -7 2 -7
-3 0 -5 -9 -11 -20 -12 -11 -1 -29 -3 -40 -4 -11 -1 -20 -6 -20 -11 0 -4 -4
-5 -10 -2 -5 3 -19 1 -30 -5 -27 -15 -69 -58 -62 -64 3 -3 0 -6 -7 -6 -7 0
-11 -6 -8 -12 2 -7 0 -21 -5 -30 -6 -13 -5 -18 4 -18 10 -1 9 -4 -2 -13 -8 -7
-15 -25 -14 -42 0 -16 -3 -38 -8 -47 -5 -11 -5 -18 1 -18 7 0 7 -9 1 -26 -6
-14 -10 -40 -10 -58 0 -18 -3 -36 -7 -40 -10 -9 -11 -46 -2 -40 5 3 2 -14 -6
-36 -9 -26 -10 -38 -3 -34 7 4 8 3 4 -5 -7 -10 -12 -40 -18 -108 -1 -7 -6 -13
-11 -13 -6 0 -5 -5 1 -12 7 -9 6 -24 -2 -50 -7 -20 -10 -42 -5 -49 4 -7 4 -20
-1 -30 -5 -9 -10 -34 -11 -55 -1 -21 -6 -44 -11 -51 -5 -6 -5 -14 1 -17 6 -4
6 -17 -1 -36 -5 -17 -8 -36 -5 -44 3 -8 -1 -23 -9 -35 -11 -14 -11 -21 -3 -21
8 0 8 -4 -1 -15 -7 -8 -8 -15 -3 -15 11 0 11 -36 0 -46 -10 -10 -9 -54 2 -54
5 0 11 -8 15 -17 20 -55 23 -73 16 -73 -12 0 -8 -53 5 -62 6 -5 6 -8 -2 -8 -6
0 -9 -9 -6 -20 3 -11 9 -20 15 -20 5 0 4 -9 -2 -20 -6 -11 -7 -20 -3 -20 13 0
11 -63 -2 -76 -7 -8 -17 -9 -28 -3 -10 6 -18 5 -22 -1 -4 -6 -10 -8 -15 -5
-12 8 -52 -33 -45 -45 4 -6 1 -10 -5 -10 -8 0 -7 -6 1 -21 9 -17 8 -20 -2 -14
-9 6 -11 2 -7 -13 4 -12 2 -22 -4 -22 -6 0 -8 -7 -5 -15 4 -8 2 -17 -4 -21 -6
-4 -5 -12 3 -22 11 -13 11 -14 -1 -7 -11 6 -12 5 -5 -6 5 -8 7 -22 5 -33 -2
-12 1 -16 10 -11 7 5 10 4 6 -3 -9 -14 3 -43 14 -36 5 3 6 -1 3 -9 -3 -8 5
-25 18 -38 13 -13 25 -28 26 -34 6 -29 14 -45 23 -45 5 0 9 -9 9 -20 0 -11 5
-20 10 -20 6 0 10 -9 10 -20 0 -11 5 -20 12 -20 6 0 8 -3 5 -7 -4 -3 0 -15 10
-25 9 -10 12 -18 8 -18 -5 0 0 -7 11 -16 10 -8 14 -13 7 -10 -8 5 -8 0 0 -18
7 -14 14 -23 16 -20 11 10 27 -43 20 -63 -5 -14 -5 -23 1 -23 6 0 10 -11 10
-24 0 -33 10 -56 24 -56 14 0 36 -47 36 -77 0 -13 5 -23 12 -23 9 0 9 -3 1
-11 -12 -12 -6 -52 7 -44 4 2 5 -7 2 -20 -2 -14 0 -25 5 -25 5 0 9 -13 8 -30
-1 -16 2 -30 7 -30 4 0 8 -5 8 -11 0 -5 -4 -8 -9 -4 -5 3 1 -15 14 -39 18 -34
21 -47 12 -56 -9 -10 -9 -11 1 -6 8 5 12 0 12 -13 0 -11 5 -23 10 -26 6 -3 10
-15 10 -26 0 -10 5 -19 10 -19 6 0 10 -6 10 -13 0 -7 11 -23 25 -35 14 -12 25
-27 25 -33 0 -5 5 -7 10 -4 6 3 10 1 10 -4 0 -6 9 -11 19 -11 11 0 22 -4 25
-9 4 -5 29 -15 56 -22 28 -7 59 -21 70 -31 11 -10 20 -14 20 -8 0 7 6 8 19 1
10 -6 33 -12 50 -13 17 -1 31 -7 31 -13 0 -5 5 -3 10 5 7 12 10 12 10 1 0 -7
6 -11 14 -8 8 3 20 0 26 -8 6 -8 18 -11 26 -8 8 3 14 0 14 -7 0 -6 5 -8 10 -5
6 3 10 1 10 -4 0 -6 9 -11 20 -11 11 0 20 -5 20 -11 0 -5 4 -7 10 -4 5 3 10 1
10 -5 0 -6 4 -8 10 -5 5 3 10 2 10 -3 0 -5 7 -9 15 -9 8 0 15 3 15 6 0 3 11 6
25 6 14 0 25 -4 25 -10 0 -5 5 -3 10 5 5 8 10 10 10 5 0 -7 44 -12 112 -14 62
-1 116 -5 120 -7 5 -3 8 0 8 6 0 6 5 8 10 5 6 -4 18 -1 27 7 14 11 16 11 8 -2
-6 -11 -3 -10 12 3 11 9 23 14 27 10 4 -4 12 0 17 10 6 9 14 15 20 12 5 -4 9
-2 9 4 0 6 6 8 14 5 7 -3 16 3 20 13 6 15 8 15 17 3 6 -10 12 -11 17 -5 4 6
27 17 52 25 25 7 47 15 50 16 3 1 15 5 28 9 12 4 22 11 22 16 0 5 10 9 23 9
13 0 28 5 35 12 6 6 22 13 34 14 13 2 32 6 43 8 11 2 23 5 26 5 3 1 19 21 35
46 15 25 32 45 37 45 4 0 13 13 18 30 6 16 15 30 21 30 5 0 6 5 3 10 -3 6 -1
10 5 10 6 0 9 4 6 9 -3 5 1 14 9 21 8 7 12 16 9 21 -3 5 -1 9 5 9 6 0 8 6 5
14 -3 8 0 17 5 21 6 3 9 11 6 16 -4 5 -1 9 4 9 6 0 10 3 10 8 -1 4 0 9 1 12 2
5 9 46 12 68 1 6 5 12 9 12 4 0 6 20 6 45 -1 25 0 45 3 45 3 0 5 27 5 60 0 33
-4 60 -10 60 -5 0 -3 5 5 10 8 5 11 10 6 10 -4 0 6 12 23 27 17 15 31 33 31
40 0 7 5 13 10 13 6 0 10 10 10 23 0 13 5 28 12 35 7 7 9 12 5 12 -4 0 -3 6 3
13 53 63 59 73 38 62 -7 -4 -5 0 4 8 10 8 15 17 11 20 -3 4 -1 7 5 7 7 0 12 3
11 8 -2 14 13 52 21 52 5 0 11 13 15 30 4 16 11 30 17 30 6 0 7 7 4 16 -4 10
-2 13 6 8 7 -5 9 -2 5 8 -3 9 -3 19 1 22 6 7 12 30 14 54 1 6 5 12 10 12 5 0
6 5 2 11 -10 17 -10 119 1 123 6 3 4 5 -3 5 -7 1 -11 5 -8 10 7 11 -19 63 -27
54 -4 -3 -5 4 -2 16 2 13 -1 21 -11 21 -8 0 -14 4 -14 9 0 5 -13 11 -30 13
-16 3 -30 2 -30 -2 0 -3 -9 -6 -19 -6 -11 0 -17 4 -15 8 3 5 -2 11 -10 14 -9
3 -13 10 -10 15 8 14 15 70 14 124 -1 70 -2 75 -13 75 -5 0 -7 7 -3 15 3 8 0
15 -7 15 -8 0 -8 3 2 9 11 7 11 9 0 13 -11 4 -11 9 3 24 18 21 25 70 14 96 -4
9 -5 22 -1 28 3 5 2 10 -2 10 -8 0 -13 28 -16 78 0 6 -5 12 -10 12 -5 0 -4 7
3 15 7 8 8 15 3 15 -10 0 -12 6 -15 63 -2 20 -6 37 -9 37 -4 0 -9 9 -12 20 -3
11 0 20 5 20 6 0 5 6 -2 15 -7 8 -9 15 -4 15 5 0 2 5 -6 10 -12 8 -12 10 -1
10 11 0 11 3 1 15 -7 8 -9 15 -5 15 4 0 1 8 -6 17 -10 11 -10 14 -1 9 6 -4 12
-2 12 3 0 6 -4 11 -8 11 -5 0 -9 6 -9 13 -1 6 -5 32 -9 57 -4 25 -7 51 -7 58
0 6 -5 12 -11 12 -6 0 -4 5 4 10 12 7 12 10 1 10 -7 0 -11 6 -8 14 3 7 0 19
-6 26 -9 10 -9 11 0 6 7 -4 9 1 6 14 -3 11 -9 17 -13 15 -5 -3 -5 8 0 25 6 22
5 32 -3 36 -7 2 -11 19 -11 37 1 17 -3 38 -9 45 -5 7 -7 15 -4 19 4 3 1 13 -6
21 -10 13 -9 14 1 8 12 -7 12 -4 2 14 -6 12 -10 31 -7 41 3 10 1 19 -4 19 -5
0 -9 15 -9 33 0 22 -8 41 -22 53 -13 12 -18 13 -13 4 7 -12 6 -13 -6 -4 -8 6
-32 17 -54 24 -22 7 -43 18 -47 24 -5 7 -8 7 -8 -3 0 -10 -5 -10 -25 3 -17 11
-25 13 -25 4 0 -6 -7 -3 -16 8 -8 10 -12 13 -8 5 6 -11 3 -13 -12 -6 -10 4
-34 10 -51 13 -18 2 -33 9 -33 14 0 6 -6 6 -14 -1 -10 -8 -16 -9 -21 -1 -3 5
-19 10 -36 10 -16 0 -29 5 -29 10 0 7 -6 7 -20 0 -12 -6 -20 -7 -20 -1 0 5 -8
8 -17 7 -10 -2 -21 2 -25 8 -5 8 -8 7 -8 -2 0 -9 -5 -10 -19 -2 -14 7 -21 6
-24 -3 -4 -9 -6 -9 -6 1 -1 7 -5 10 -11 7 -5 -3 -10 -1 -10 6 0 8 -4 8 -15 -1
-12 -10 -15 -10 -15 0 0 10 -3 10 -15 0 -11 -9 -15 -9 -15 -1 0 8 -5 9 -18 2
-10 -5 -24 -6 -32 -1 -8 5 -22 4 -32 -1 -13 -7 -18 -6 -18 2 0 8 -4 8 -15 -1
-12 -10 -15 -10 -15 0 0 10 -3 10 -15 0 -12 -10 -15 -10 -15 0 0 10 -3 10 -15
0 -12 -10 -15 -10 -15 0 0 10 -3 10 -14 1 -9 -8 -15 -8 -18 -2 -2 7 -8 7 -18
0z"/>
</g>
</svg>
